# Blender v2.79 (sub 0) OBJ File: ''
# www.blender.org
mtllib part-type.mtl
o obj1
v 90.854668 90.910942 10.000015
v 90.854668 90.910942 -9.999985
v 90.854675 70.922768 -9.999989
v 90.854675 70.922768 10.000011
v 110.843483 90.910942 10.000015
v 110.843483 90.910942 -9.999985
v 130.832321 90.910942 -9.999985
v 130.832321 90.910942 10.000015
v 130.832321 70.922623 10.000011
v 130.832321 70.922623 -9.999989
v 110.843483 70.923027 -9.999989
v 110.843483 70.923027 10.000011
vt 0.498650 0.495050
vt 0.928370 0.495050
vt 0.928370 0.065320
vt 0.498650 0.065320
vt 0.928370 0.495050
vt 0.928370 0.065320
vt 0.498650 0.065320
vt 0.498650 0.495050
vt 0.928370 0.495050
vt 0.928370 0.065320
vt 0.498650 0.065320
vt 0.498650 0.495050
vt 0.928370 0.065320
vt 0.498650 0.065320
vt 0.095870 0.958370
vt 0.527330 0.958370
vt 0.527330 0.526910
vt 0.095870 0.526910
vt 0.095870 0.958370
vt 0.527330 0.958370
vt 0.527330 0.526910
vt 0.095870 0.526910
vt 0.095870 0.958370
vt 0.527330 0.958370
vt 0.527330 0.526910
vt 0.095870 0.526910
vt 0.095870 0.958370
vt 0.527330 0.958370
vt 0.527330 0.526910
vt 0.095870 0.526910
vt 0.498650 0.065320
vt 0.928370 0.065320
vt 0.928370 0.495050
vt 0.498650 0.495050
vt 0.498650 0.065320
vt 0.928370 0.065320
vt 0.928370 0.495050
vt 0.498650 0.495050
vn -1.0000 -0.0000 0.0000
vn 0.0000 1.0000 0.0000
vn 1.0000 0.0000 0.0000
vn 0.0000 0.0000 -1.0000
vn 0.0000 -0.0000 1.0000
vn 0.0000 -1.0000 0.0000
usemtl mat1
s 1
f 1/1/1 2/2/1 3/3/1 4/4/1
f 1/1/2 5/5/2 6/6/2 2/7/2
f 7/8/3 8/9/3 9/10/3 10/11/3
f 5/12/2 8/9/2 7/13/2 6/14/2
f 2/15/4 6/16/4 11/17/4 3/18/4
f 5/19/5 1/20/5 4/21/5 12/22/5
f 6/23/4 7/24/4 10/25/4 11/26/4
f 8/27/5 5/28/5 12/29/5 9/30/5
f 3/31/6 11/32/6 12/33/6 4/34/6
f 11/35/6 10/36/6 9/37/6 12/38/6
